<mxfile host="app.diagrams.net" modified="2022-08-31T11:26:54.048Z" agent="5.0 (Windows NT 10.0; Win64; x64) AppleWebKit/537.36 (KHTML, like Gecko) Chrome/104.0.0.0 Safari/537.36" etag="G4Q9PkF1GqzfXU6EZffH" version="20.2.3" type="github">
  <diagram id="M8SiFTPXY_b9BN0Kya87" name="第 1 页">
    <mxGraphModel dx="891" dy="404" grid="1" gridSize="10" guides="1" tooltips="1" connect="1" arrows="1" fold="1" page="1" pageScale="1" pageWidth="827" pageHeight="1169" math="0" shadow="0">
      <root>
        <mxCell id="0" />
        <mxCell id="1" parent="0" />
        <mxCell id="UDKESpounTmMrRcanMY5-4" style="edgeStyle=orthogonalEdgeStyle;rounded=0;orthogonalLoop=1;jettySize=auto;html=1;exitX=0.5;exitY=1;exitDx=0;exitDy=0;entryX=0.5;entryY=0;entryDx=0;entryDy=0;" edge="1" parent="1" source="UDKESpounTmMrRcanMY5-2" target="UDKESpounTmMrRcanMY5-3">
          <mxGeometry relative="1" as="geometry" />
        </mxCell>
        <mxCell id="UDKESpounTmMrRcanMY5-2" value="开始" style="ellipse;whiteSpace=wrap;html=1;" vertex="1" parent="1">
          <mxGeometry x="204" y="20" width="60" height="40" as="geometry" />
        </mxCell>
        <mxCell id="UDKESpounTmMrRcanMY5-7" style="edgeStyle=orthogonalEdgeStyle;rounded=0;orthogonalLoop=1;jettySize=auto;html=1;exitX=0.5;exitY=1;exitDx=0;exitDy=0;entryX=0.5;entryY=0;entryDx=0;entryDy=0;" edge="1" parent="1" source="UDKESpounTmMrRcanMY5-3" target="UDKESpounTmMrRcanMY5-5">
          <mxGeometry relative="1" as="geometry" />
        </mxCell>
        <mxCell id="UDKESpounTmMrRcanMY5-13" value="" style="edgeStyle=orthogonalEdgeStyle;rounded=0;orthogonalLoop=1;jettySize=auto;html=1;" edge="1" parent="1" source="UDKESpounTmMrRcanMY5-3" target="UDKESpounTmMrRcanMY5-12">
          <mxGeometry relative="1" as="geometry" />
        </mxCell>
        <mxCell id="UDKESpounTmMrRcanMY5-3" value="外部供电&lt;br&gt;（AC 90V左右）" style="rhombus;whiteSpace=wrap;html=1;" vertex="1" parent="1">
          <mxGeometry x="169" y="80" width="130" height="70" as="geometry" />
        </mxCell>
        <mxCell id="UDKESpounTmMrRcanMY5-8" style="edgeStyle=orthogonalEdgeStyle;rounded=0;orthogonalLoop=1;jettySize=auto;html=1;exitX=0.5;exitY=1;exitDx=0;exitDy=0;entryX=0.5;entryY=0;entryDx=0;entryDy=0;" edge="1" parent="1" source="UDKESpounTmMrRcanMY5-5" target="UDKESpounTmMrRcanMY5-6">
          <mxGeometry relative="1" as="geometry" />
        </mxCell>
        <mxCell id="UDKESpounTmMrRcanMY5-5" value="进入低功耗表记处理" style="rounded=0;whiteSpace=wrap;html=1;" vertex="1" parent="1">
          <mxGeometry x="176" y="170" width="116" height="40" as="geometry" />
        </mxCell>
        <mxCell id="UDKESpounTmMrRcanMY5-17" value="" style="edgeStyle=orthogonalEdgeStyle;rounded=0;orthogonalLoop=1;jettySize=auto;html=1;" edge="1" parent="1" source="UDKESpounTmMrRcanMY5-6" target="UDKESpounTmMrRcanMY5-15">
          <mxGeometry relative="1" as="geometry" />
        </mxCell>
        <mxCell id="UDKESpounTmMrRcanMY5-6" value="无关IO管脚配置开漏输出高(浮空态，部分特殊IO不能关闭输入上拉除外）" style="rounded=0;whiteSpace=wrap;html=1;" vertex="1" parent="1">
          <mxGeometry x="174" y="230" width="120" height="60" as="geometry" />
        </mxCell>
        <mxCell id="UDKESpounTmMrRcanMY5-9" style="edgeStyle=orthogonalEdgeStyle;rounded=0;orthogonalLoop=1;jettySize=auto;html=1;exitX=0.5;exitY=1;exitDx=0;exitDy=0;" edge="1" parent="1" source="UDKESpounTmMrRcanMY5-3" target="UDKESpounTmMrRcanMY5-3">
          <mxGeometry relative="1" as="geometry" />
        </mxCell>
        <mxCell id="UDKESpounTmMrRcanMY5-21" value="" style="edgeStyle=orthogonalEdgeStyle;rounded=0;orthogonalLoop=1;jettySize=auto;html=1;" edge="1" parent="1" source="UDKESpounTmMrRcanMY5-10" target="UDKESpounTmMrRcanMY5-19">
          <mxGeometry relative="1" as="geometry" />
        </mxCell>
        <mxCell id="UDKESpounTmMrRcanMY5-28" value="" style="edgeStyle=orthogonalEdgeStyle;rounded=0;orthogonalLoop=1;jettySize=auto;html=1;" edge="1" parent="1" source="UDKESpounTmMrRcanMY5-10" target="UDKESpounTmMrRcanMY5-27">
          <mxGeometry relative="1" as="geometry" />
        </mxCell>
        <mxCell id="UDKESpounTmMrRcanMY5-10" value="需要掉电&lt;br&gt;主动上报" style="rhombus;whiteSpace=wrap;html=1;" vertex="1" parent="1">
          <mxGeometry x="178.5" y="370" width="111" height="60" as="geometry" />
        </mxCell>
        <mxCell id="UDKESpounTmMrRcanMY5-11" value="N" style="text;html=1;align=center;verticalAlign=middle;resizable=0;points=[];autosize=1;strokeColor=none;fillColor=none;" vertex="1" parent="1">
          <mxGeometry x="204" y="140" width="30" height="30" as="geometry" />
        </mxCell>
        <mxCell id="UDKESpounTmMrRcanMY5-12" value="进入正常表记处理" style="rounded=0;whiteSpace=wrap;html=1;" vertex="1" parent="1">
          <mxGeometry x="70" y="92.5" width="70" height="45" as="geometry" />
        </mxCell>
        <mxCell id="UDKESpounTmMrRcanMY5-14" value="Y" style="text;html=1;align=center;verticalAlign=middle;resizable=0;points=[];autosize=1;strokeColor=none;fillColor=none;" vertex="1" parent="1">
          <mxGeometry x="145" y="85" width="30" height="30" as="geometry" />
        </mxCell>
        <mxCell id="UDKESpounTmMrRcanMY5-18" value="" style="edgeStyle=orthogonalEdgeStyle;rounded=0;orthogonalLoop=1;jettySize=auto;html=1;" edge="1" parent="1" source="UDKESpounTmMrRcanMY5-15" target="UDKESpounTmMrRcanMY5-10">
          <mxGeometry relative="1" as="geometry" />
        </mxCell>
        <mxCell id="UDKESpounTmMrRcanMY5-15" value="时钟配置为内部高频HRC 11Mhz" style="rounded=0;whiteSpace=wrap;html=1;" vertex="1" parent="1">
          <mxGeometry x="174" y="310" width="120" height="40" as="geometry" />
        </mxCell>
        <mxCell id="UDKESpounTmMrRcanMY5-23" value="" style="edgeStyle=orthogonalEdgeStyle;rounded=0;orthogonalLoop=1;jettySize=auto;html=1;" edge="1" parent="1" source="UDKESpounTmMrRcanMY5-19" target="UDKESpounTmMrRcanMY5-20">
          <mxGeometry relative="1" as="geometry" />
        </mxCell>
        <mxCell id="UDKESpounTmMrRcanMY5-19" value="使能对应时钟、串口、IIC，" style="rounded=0;whiteSpace=wrap;html=1;" vertex="1" parent="1">
          <mxGeometry x="314" y="381.25" width="100" height="37.5" as="geometry" />
        </mxCell>
        <mxCell id="UDKESpounTmMrRcanMY5-25" value="" style="edgeStyle=orthogonalEdgeStyle;rounded=0;orthogonalLoop=1;jettySize=auto;html=1;" edge="1" parent="1" source="UDKESpounTmMrRcanMY5-20" target="UDKESpounTmMrRcanMY5-24">
          <mxGeometry relative="1" as="geometry" />
        </mxCell>
        <mxCell id="UDKESpounTmMrRcanMY5-20" value="&lt;span style=&quot;color: rgb(0, 0, 0); font-family: Helvetica; font-size: 12px; font-style: normal; font-variant-ligatures: normal; font-variant-caps: normal; font-weight: 400; letter-spacing: normal; orphans: 2; text-align: center; text-indent: 0px; text-transform: none; widows: 2; word-spacing: 0px; -webkit-text-stroke-width: 0px; background-color: rgb(248, 249, 250); text-decoration-thickness: initial; text-decoration-style: initial; text-decoration-color: initial; float: none; display: inline !important;&quot;&gt;从EEPROM读取需要上报的数据，通过串口上报给上行模组&lt;/span&gt;" style="rounded=0;whiteSpace=wrap;html=1;" vertex="1" parent="1">
          <mxGeometry x="430" y="381.25" width="180" height="37.5" as="geometry" />
        </mxCell>
        <mxCell id="UDKESpounTmMrRcanMY5-34" style="edgeStyle=orthogonalEdgeStyle;rounded=0;orthogonalLoop=1;jettySize=auto;html=1;exitX=0.5;exitY=1;exitDx=0;exitDy=0;entryX=0.968;entryY=0.469;entryDx=0;entryDy=0;entryPerimeter=0;" edge="1" parent="1" source="UDKESpounTmMrRcanMY5-24" target="UDKESpounTmMrRcanMY5-29">
          <mxGeometry relative="1" as="geometry" />
        </mxCell>
        <mxCell id="UDKESpounTmMrRcanMY5-24" value="关闭对应时钟、串口、IIC，" style="rounded=0;whiteSpace=wrap;html=1;" vertex="1" parent="1">
          <mxGeometry x="630" y="381.25" width="100" height="38.75" as="geometry" />
        </mxCell>
        <mxCell id="UDKESpounTmMrRcanMY5-26" value="Y" style="text;html=1;align=center;verticalAlign=middle;resizable=0;points=[];autosize=1;strokeColor=none;fillColor=none;" vertex="1" parent="1">
          <mxGeometry x="279" y="376.25" width="30" height="30" as="geometry" />
        </mxCell>
        <mxCell id="UDKESpounTmMrRcanMY5-35" style="edgeStyle=orthogonalEdgeStyle;rounded=0;orthogonalLoop=1;jettySize=auto;html=1;exitX=0;exitY=0.5;exitDx=0;exitDy=0;entryX=0.5;entryY=1;entryDx=0;entryDy=0;" edge="1" parent="1" source="UDKESpounTmMrRcanMY5-27" target="UDKESpounTmMrRcanMY5-12">
          <mxGeometry relative="1" as="geometry" />
        </mxCell>
        <mxCell id="UDKESpounTmMrRcanMY5-27" value="外部供电&lt;br&gt;（AC 90V左右）" style="rhombus;whiteSpace=wrap;html=1;" vertex="1" parent="1">
          <mxGeometry x="178.5" y="450" width="111" height="80" as="geometry" />
        </mxCell>
        <mxCell id="UDKESpounTmMrRcanMY5-29" value="N" style="text;html=1;align=center;verticalAlign=middle;resizable=0;points=[];autosize=1;strokeColor=none;fillColor=none;" vertex="1" parent="1">
          <mxGeometry x="204" y="430" width="30" height="30" as="geometry" />
        </mxCell>
        <mxCell id="UDKESpounTmMrRcanMY5-36" value="Y" style="text;html=1;align=center;verticalAlign=middle;resizable=0;points=[];autosize=1;strokeColor=none;fillColor=none;" vertex="1" parent="1">
          <mxGeometry x="140" y="465" width="30" height="30" as="geometry" />
        </mxCell>
        <mxCell id="UDKESpounTmMrRcanMY5-37" value="" style="rounded=0;whiteSpace=wrap;html=1;" vertex="1" parent="1">
          <mxGeometry x="171" y="552" width="126" height="66" as="geometry" />
        </mxCell>
      </root>
    </mxGraphModel>
  </diagram>
</mxfile>
